<svg xmlns="http://www.w3.org/2000/svg" viewBox="0 0 520 402" role="img" aria-label="Melamine with a CO2 molecule over an amino group"><title>Melamine with a CO2 molecule over an amino group</title><defs><radialGradient id="gC" cx="0.36" cy="0.32" r="0.72"><stop offset="0" stop-color="#c9cecb"/><stop offset="0.45" stop-color="#4b5b52"/><stop offset="1" stop-color="#29322d"/></radialGradient><radialGradient id="gH" cx="0.36" cy="0.32" r="0.72"><stop offset="0" stop-color="#fbfbfa"/><stop offset="0.45" stop-color="#f2f2ee"/><stop offset="1" stop-color="#858583"/></radialGradient><radialGradient id="gN" cx="0.36" cy="0.32" r="0.72"><stop offset="0" stop-color="#c4d2ef"/><stop offset="0.45" stop-color="#3b68c9"/><stop offset="1" stop-color="#20396f"/></radialGradient><radialGradient id="gO" cx="0.36" cy="0.32" r="0.72"><stop offset="0" stop-color="#f3c8c5"/><stop offset="0.45" stop-color="#d8473d"/><stop offset="1" stop-color="#772722"/></radialGradient></defs><line x1="383.9" y1="88.7" x2="370.8" y2="64.3" stroke="#858582" stroke-width="13.2" stroke-linecap="round"/><line x1="383.9" y1="88.7" x2="370.8" y2="64.3" stroke="#e4e4de" stroke-width="10.4" stroke-linecap="round"/>
<line x1="397.0" y1="113.1" x2="383.9" y2="88.7" stroke="#3b4e74" stroke-width="13.2" stroke-linecap="round"/><line x1="397.0" y1="113.1" x2="383.9" y2="88.7" stroke="#7897d7" stroke-width="10.4" stroke-linecap="round"/>
<line x1="397.0" y1="113.1" x2="424.6" y2="112.4" stroke="#3b4e74" stroke-width="13.2" stroke-linecap="round"/><line x1="397.0" y1="113.1" x2="424.6" y2="112.4" stroke="#7896d7" stroke-width="10.4" stroke-linecap="round"/>
<line x1="424.6" y1="112.4" x2="452.1" y2="111.8" stroke="#858582" stroke-width="13.2" stroke-linecap="round"/><line x1="424.6" y1="112.4" x2="452.1" y2="111.8" stroke="#e4e4de" stroke-width="10.4" stroke-linecap="round"/>
<line x1="381.2" y1="134.4" x2="397.0" y2="113.1" stroke="#3a4c74" stroke-width="13.2" stroke-linecap="round"/><line x1="381.2" y1="134.4" x2="397.0" y2="113.1" stroke="#7594d6" stroke-width="10.4" stroke-linecap="round"/>
<circle cx="370.8" cy="64.3" r="14.8" fill="url(#gH)" stroke="#6d6d6b" stroke-width="0.66" opacity="0.78"/>
<circle cx="397.0" cy="113.1" r="22.0" fill="url(#gN)" stroke="#1b2f5a" stroke-width="0.66" opacity="0.78"/>
<circle cx="452.1" cy="111.8" r="14.8" fill="url(#gH)" stroke="#6d6d6b" stroke-width="0.66" opacity="0.79"/>
<line x1="77.6" y1="195.6" x2="76.9" y2="163.4" stroke="#7a3d38" stroke-width="10.3" stroke-linecap="round"/><line x1="77.6" y1="195.6" x2="76.9" y2="163.4" stroke="#e07a71" stroke-width="7.5" stroke-linecap="round"/>
<line x1="66.6" y1="195.9" x2="65.9" y2="163.7" stroke="#7a3d38" stroke-width="10.3" stroke-linecap="round"/><line x1="66.6" y1="195.9" x2="65.9" y2="163.7" stroke="#e07a71" stroke-width="7.5" stroke-linecap="round"/>
<circle cx="71.4" cy="163.6" r="22.0" fill="url(#gO)" stroke="#61201b" stroke-width="0.66" opacity="0.81"/>
<line x1="365.3" y1="155.7" x2="381.2" y2="134.4" stroke="#3d443f" stroke-width="13.2" stroke-linecap="round"/><line x1="365.3" y1="155.7" x2="381.2" y2="134.4" stroke="#7a867e" stroke-width="10.4" stroke-linecap="round"/>
<line x1="78.2" y1="227.8" x2="77.6" y2="195.6" stroke="#3b433e" stroke-width="10.3" stroke-linecap="round"/><line x1="78.2" y1="227.8" x2="77.6" y2="195.6" stroke="#78847c" stroke-width="7.5" stroke-linecap="round"/>
<line x1="67.2" y1="228.1" x2="66.6" y2="195.9" stroke="#3b433e" stroke-width="10.3" stroke-linecap="round"/><line x1="67.2" y1="228.1" x2="66.6" y2="195.9" stroke="#78847c" stroke-width="7.5" stroke-linecap="round"/>
<line x1="366.4" y1="150.3" x2="331.9" y2="143.2" stroke="#3a423d" stroke-width="10.3" stroke-linecap="round"/><line x1="366.4" y1="150.3" x2="331.9" y2="143.2" stroke="#76837b" stroke-width="7.5" stroke-linecap="round"/>
<line x1="364.2" y1="161.1" x2="329.7" y2="154.0" stroke="#3a423d" stroke-width="10.3" stroke-linecap="round"/><line x1="364.2" y1="161.1" x2="329.7" y2="154.0" stroke="#76837b" stroke-width="7.5" stroke-linecap="round"/>
<line x1="386.1" y1="181.0" x2="365.3" y2="155.7" stroke="#3a413d" stroke-width="13.2" stroke-linecap="round"/><line x1="386.1" y1="181.0" x2="365.3" y2="155.7" stroke="#75827b" stroke-width="10.4" stroke-linecap="round"/>
<line x1="331.9" y1="143.2" x2="297.3" y2="136.2" stroke="#324772" stroke-width="10.3" stroke-linecap="round"/><line x1="331.9" y1="143.2" x2="297.3" y2="136.2" stroke="#688bd3" stroke-width="7.5" stroke-linecap="round"/>
<line x1="329.7" y1="154.0" x2="295.1" y2="147.0" stroke="#324772" stroke-width="10.3" stroke-linecap="round"/><line x1="329.7" y1="154.0" x2="295.1" y2="147.0" stroke="#688bd3" stroke-width="7.5" stroke-linecap="round"/>
<circle cx="365.3" cy="155.7" r="22.0" fill="url(#gC)" stroke="#222925" stroke-width="0.66" opacity="0.84"/>
<line x1="78.9" y1="260.0" x2="78.2" y2="227.8" stroke="#39403b" stroke-width="10.3" stroke-linecap="round"/><line x1="78.9" y1="260.0" x2="78.2" y2="227.8" stroke="#737f78" stroke-width="7.5" stroke-linecap="round"/>
<line x1="67.9" y1="260.3" x2="67.2" y2="228.1" stroke="#39403b" stroke-width="10.3" stroke-linecap="round"/><line x1="67.9" y1="260.3" x2="67.2" y2="228.1" stroke="#737f78" stroke-width="7.5" stroke-linecap="round"/>
<line x1="406.9" y1="206.2" x2="386.1" y2="181.0" stroke="#304572" stroke-width="13.2" stroke-linecap="round"/><line x1="406.9" y1="206.2" x2="386.1" y2="181.0" stroke="#6588d3" stroke-width="10.4" stroke-linecap="round"/>
<line x1="178.6" y1="180.0" x2="90.7" y2="219.8" stroke="#c98a06" stroke-width="4.1" stroke-dasharray="8.8 7.7" stroke-linecap="round"/>
<circle cx="72.7" cy="227.9" r="22.0" fill="url(#gC)" stroke="#222925" stroke-width="0.66" opacity="0.85"/>
<line x1="296.2" y1="141.6" x2="282.6" y2="162.4" stroke="#304571" stroke-width="13.2" stroke-linecap="round"/><line x1="296.2" y1="141.6" x2="282.6" y2="162.4" stroke="#6487d2" stroke-width="10.4" stroke-linecap="round"/>
<circle cx="296.2" cy="141.6" r="22.0" fill="url(#gN)" stroke="#1b2f5a" stroke-width="0.66" opacity="0.86"/>
<line x1="79.5" y1="292.2" x2="78.9" y2="260.0" stroke="#78342f" stroke-width="10.3" stroke-linecap="round"/><line x1="79.5" y1="292.2" x2="78.9" y2="260.0" stroke="#de6c63" stroke-width="7.5" stroke-linecap="round"/>
<line x1="68.5" y1="292.4" x2="67.9" y2="260.3" stroke="#78342f" stroke-width="10.3" stroke-linecap="round"/><line x1="68.5" y1="292.4" x2="67.9" y2="260.3" stroke="#de6c63" stroke-width="7.5" stroke-linecap="round"/>
<line x1="394.7" y1="229.0" x2="411.1" y2="209.8" stroke="#2e4371" stroke-width="10.3" stroke-linecap="round"/><line x1="394.7" y1="229.0" x2="411.1" y2="209.8" stroke="#6185d2" stroke-width="7.5" stroke-linecap="round"/>
<line x1="386.3" y1="221.9" x2="402.8" y2="202.7" stroke="#2e4371" stroke-width="10.3" stroke-linecap="round"/><line x1="386.3" y1="221.9" x2="402.8" y2="202.7" stroke="#6185d2" stroke-width="7.5" stroke-linecap="round"/>
<circle cx="406.9" cy="206.2" r="22.0" fill="url(#gN)" stroke="#1b2f5a" stroke-width="0.66" opacity="0.88"/>
<line x1="282.6" y1="162.4" x2="269.0" y2="183.3" stroke="#343b37" stroke-width="13.2" stroke-linecap="round"/><line x1="282.6" y1="162.4" x2="269.0" y2="183.3" stroke="#6b7870" stroke-width="10.4" stroke-linecap="round"/>
<line x1="182.6" y1="160.1" x2="168.7" y2="148.4" stroke="#858583" stroke-width="13.2" stroke-linecap="round"/><line x1="182.6" y1="160.1" x2="168.7" y2="148.4" stroke="#e4e4de" stroke-width="10.4" stroke-linecap="round"/>
<circle cx="168.7" cy="148.4" r="14.8" fill="url(#gH)" stroke="#6d6d6b" stroke-width="0.66" opacity="0.90"/>
<line x1="378.2" y1="248.2" x2="394.7" y2="229.0" stroke="#323a35" stroke-width="10.3" stroke-linecap="round"/><line x1="378.2" y1="248.2" x2="394.7" y2="229.0" stroke="#68766e" stroke-width="7.5" stroke-linecap="round"/>
<line x1="369.9" y1="241.1" x2="386.3" y2="221.9" stroke="#323a35" stroke-width="10.3" stroke-linecap="round"/><line x1="369.9" y1="241.1" x2="386.3" y2="221.9" stroke="#68766e" stroke-width="7.5" stroke-linecap="round"/>
<circle cx="74.0" cy="292.3" r="22.0" fill="url(#gO)" stroke="#61201b" stroke-width="0.66" opacity="0.90"/>
<line x1="232.8" y1="177.6" x2="269.0" y2="183.3" stroke="#323a35" stroke-width="13.2" stroke-linecap="round"/><line x1="232.8" y1="177.6" x2="269.0" y2="183.3" stroke="#67756d" stroke-width="10.4" stroke-linecap="round"/>
<line x1="264.4" y1="186.4" x2="282.4" y2="213.0" stroke="#313934" stroke-width="10.3" stroke-linecap="round"/><line x1="264.4" y1="186.4" x2="282.4" y2="213.0" stroke="#66746c" stroke-width="7.5" stroke-linecap="round"/>
<line x1="273.6" y1="180.2" x2="291.5" y2="206.8" stroke="#313934" stroke-width="10.3" stroke-linecap="round"/><line x1="273.6" y1="180.2" x2="291.5" y2="206.8" stroke="#66746c" stroke-width="7.5" stroke-linecap="round"/>
<line x1="196.6" y1="171.8" x2="182.6" y2="160.1" stroke="#294070" stroke-width="13.2" stroke-linecap="round"/><line x1="196.6" y1="171.8" x2="182.6" y2="160.1" stroke="#587fd0" stroke-width="10.4" stroke-linecap="round"/>
<line x1="196.6" y1="171.8" x2="232.8" y2="177.6" stroke="#283f70" stroke-width="13.2" stroke-linecap="round"/><line x1="196.6" y1="171.8" x2="232.8" y2="177.6" stroke="#587dd0" stroke-width="10.4" stroke-linecap="round"/>
<line x1="339.5" y1="240.6" x2="374.0" y2="244.7" stroke="#303833" stroke-width="13.2" stroke-linecap="round"/><line x1="339.5" y1="240.6" x2="374.0" y2="244.7" stroke="#64726a" stroke-width="10.4" stroke-linecap="round"/>
<circle cx="269.0" cy="183.3" r="22.0" fill="url(#gC)" stroke="#222925" stroke-width="0.66" opacity="0.92"/>
<line x1="374.0" y1="244.7" x2="394.3" y2="271.9" stroke="#2f3833" stroke-width="13.2" stroke-linecap="round"/><line x1="374.0" y1="244.7" x2="394.3" y2="271.9" stroke="#647169" stroke-width="10.4" stroke-linecap="round"/>
<line x1="435.1" y1="307.6" x2="455.7" y2="316.1" stroke="#858583" stroke-width="13.2" stroke-linecap="round"/><line x1="435.1" y1="307.6" x2="455.7" y2="316.1" stroke="#e4e4de" stroke-width="10.4" stroke-linecap="round"/>
<line x1="196.6" y1="171.8" x2="185.9" y2="194.8" stroke="#263e70" stroke-width="13.2" stroke-linecap="round"/><line x1="196.6" y1="171.8" x2="185.9" y2="194.8" stroke="#557bcf" stroke-width="10.4" stroke-linecap="round"/>
<line x1="282.4" y1="213.0" x2="300.4" y2="239.5" stroke="#263e70" stroke-width="10.3" stroke-linecap="round"/><line x1="282.4" y1="213.0" x2="300.4" y2="239.5" stroke="#557bcf" stroke-width="7.5" stroke-linecap="round"/>
<line x1="291.5" y1="206.8" x2="309.5" y2="233.4" stroke="#263e70" stroke-width="10.3" stroke-linecap="round"/><line x1="291.5" y1="206.8" x2="309.5" y2="233.4" stroke="#557bcf" stroke-width="7.5" stroke-linecap="round"/>
<line x1="304.9" y1="236.5" x2="339.5" y2="240.6" stroke="#263e70" stroke-width="13.2" stroke-linecap="round"/><line x1="304.9" y1="236.5" x2="339.5" y2="240.6" stroke="#547bcf" stroke-width="10.4" stroke-linecap="round"/>
<circle cx="374.0" cy="244.7" r="22.0" fill="url(#gC)" stroke="#222925" stroke-width="0.66" opacity="0.94"/>
<circle cx="455.7" cy="316.1" r="14.8" fill="url(#gH)" stroke="#6d6d6b" stroke-width="0.66" opacity="0.94"/>
<line x1="185.9" y1="194.8" x2="175.1" y2="217.7" stroke="#858583" stroke-width="13.2" stroke-linecap="round"/><line x1="185.9" y1="194.8" x2="175.1" y2="217.7" stroke="#e4e4de" stroke-width="10.4" stroke-linecap="round"/>
<line x1="394.3" y1="271.9" x2="414.5" y2="299.2" stroke="#253d6f" stroke-width="13.2" stroke-linecap="round"/><line x1="394.3" y1="271.9" x2="414.5" y2="299.2" stroke="#527ace" stroke-width="10.4" stroke-linecap="round"/>
<circle cx="196.6" cy="171.8" r="22.0" fill="url(#gN)" stroke="#1b2f5a" stroke-width="0.66" opacity="0.95"/>
<line x1="414.5" y1="299.2" x2="435.1" y2="307.6" stroke="#243d6f" stroke-width="13.2" stroke-linecap="round"/><line x1="414.5" y1="299.2" x2="435.1" y2="307.6" stroke="#517ace" stroke-width="10.4" stroke-linecap="round"/>
<line x1="414.5" y1="299.2" x2="397.8" y2="318.6" stroke="#233b6f" stroke-width="13.2" stroke-linecap="round"/><line x1="414.5" y1="299.2" x2="397.8" y2="318.6" stroke="#4e77ce" stroke-width="10.4" stroke-linecap="round"/>
<circle cx="304.9" cy="236.5" r="22.0" fill="url(#gN)" stroke="#1b2f5a" stroke-width="0.66" opacity="0.96"/>
<circle cx="175.1" cy="217.7" r="14.8" fill="url(#gH)" stroke="#6d6d6b" stroke-width="0.66" opacity="0.97"/>
<line x1="397.8" y1="318.6" x2="381.0" y2="338.0" stroke="#858583" stroke-width="13.2" stroke-linecap="round"/><line x1="397.8" y1="318.6" x2="381.0" y2="338.0" stroke="#e4e4de" stroke-width="10.4" stroke-linecap="round"/>
<circle cx="414.5" cy="299.2" r="22.0" fill="url(#gN)" stroke="#1b2f5a" stroke-width="0.66" opacity="0.98"/>
<circle cx="381.0" cy="338.0" r="14.8" fill="url(#gH)" stroke="#6d6d6b" stroke-width="0.66" opacity="1.00"/></svg>