<svg xmlns="http://www.w3.org/2000/svg" viewBox="0 0 520 330" role="img" aria-label="Phenol with three hydrogen-bonded water molecules"><title>Phenol with three hydrogen-bonded water molecules</title><defs><radialGradient id="gC" cx="0.36" cy="0.32" r="0.72"><stop offset="0" stop-color="#c9cecb"/><stop offset="0.45" stop-color="#4b5b52"/><stop offset="1" stop-color="#29322d"/></radialGradient><radialGradient id="gH" cx="0.36" cy="0.32" r="0.72"><stop offset="0" stop-color="#fbfbfa"/><stop offset="0.45" stop-color="#f2f2ee"/><stop offset="1" stop-color="#858583"/></radialGradient><radialGradient id="gO" cx="0.36" cy="0.32" r="0.72"><stop offset="0" stop-color="#f3c8c5"/><stop offset="0.45" stop-color="#d8473d"/><stop offset="1" stop-color="#772722"/></radialGradient></defs><line x1="309.9" y1="151.4" x2="300.1" y2="137.1" stroke="#858582" stroke-width="11.6" stroke-linecap="round"/><line x1="309.9" y1="151.4" x2="300.1" y2="137.1" stroke="#e4e4de" stroke-width="9.2" stroke-linecap="round"/>
<circle cx="300.1" cy="137.1" r="13.1" fill="url(#gH)" stroke="#6d6d6b" stroke-width="0.58" opacity="0.78"/>
<line x1="402.9" y1="156.8" x2="419.2" y2="143.9" stroke="#858583" stroke-width="11.6" stroke-linecap="round"/><line x1="402.9" y1="156.8" x2="419.2" y2="143.9" stroke="#e4e4de" stroke-width="9.2" stroke-linecap="round"/>
<line x1="319.7" y1="165.7" x2="309.9" y2="151.4" stroke="#3e4541" stroke-width="11.6" stroke-linecap="round"/><line x1="319.7" y1="165.7" x2="309.9" y2="151.4" stroke="#7c8881" stroke-width="9.2" stroke-linecap="round"/>
<circle cx="419.2" cy="143.9" r="13.1" fill="url(#gH)" stroke="#6d6d6b" stroke-width="0.58" opacity="0.80"/>
<line x1="386.5" y1="169.6" x2="402.9" y2="156.8" stroke="#3d443f" stroke-width="11.6" stroke-linecap="round"/><line x1="386.5" y1="169.6" x2="402.9" y2="156.8" stroke="#7a867e" stroke-width="9.2" stroke-linecap="round"/>
<line x1="319.7" y1="165.7" x2="353.1" y2="167.7" stroke="#3d443f" stroke-width="11.6" stroke-linecap="round"/><line x1="319.7" y1="165.7" x2="353.1" y2="167.7" stroke="#7a867e" stroke-width="9.2" stroke-linecap="round"/>
<line x1="353.1" y1="167.7" x2="386.5" y2="169.6" stroke="#3c433f" stroke-width="11.6" stroke-linecap="round"/><line x1="353.1" y1="167.7" x2="386.5" y2="169.6" stroke="#79857d" stroke-width="9.2" stroke-linecap="round"/>
<line x1="301.8" y1="186.1" x2="322.7" y2="169.5" stroke="#3b433e" stroke-width="9.1" stroke-linecap="round"/><line x1="301.8" y1="186.1" x2="322.7" y2="169.5" stroke="#78847c" stroke-width="6.6" stroke-linecap="round"/>
<line x1="295.8" y1="178.5" x2="316.6" y2="161.9" stroke="#3b433e" stroke-width="9.1" stroke-linecap="round"/><line x1="295.8" y1="178.5" x2="316.6" y2="161.9" stroke="#78847c" stroke-width="6.6" stroke-linecap="round"/>
<circle cx="319.7" cy="165.7" r="19.4" fill="url(#gC)" stroke="#222925" stroke-width="0.58" opacity="0.83"/>
<line x1="382.5" y1="172.3" x2="394.8" y2="190.8" stroke="#3a413d" stroke-width="9.1" stroke-linecap="round"/><line x1="382.5" y1="172.3" x2="394.8" y2="190.8" stroke="#75827a" stroke-width="6.6" stroke-linecap="round"/>
<line x1="390.5" y1="166.9" x2="402.9" y2="185.4" stroke="#3a413d" stroke-width="9.1" stroke-linecap="round"/><line x1="390.5" y1="166.9" x2="402.9" y2="185.4" stroke="#75827a" stroke-width="6.6" stroke-linecap="round"/>
<circle cx="386.5" cy="169.6" r="19.4" fill="url(#gC)" stroke="#222925" stroke-width="0.58" opacity="0.84"/>
<line x1="281.0" y1="202.6" x2="301.8" y2="186.1" stroke="#39403b" stroke-width="9.1" stroke-linecap="round"/><line x1="281.0" y1="202.6" x2="301.8" y2="186.1" stroke="#738078" stroke-width="6.6" stroke-linecap="round"/>
<line x1="275.0" y1="195.0" x2="295.8" y2="178.5" stroke="#39403b" stroke-width="9.1" stroke-linecap="round"/><line x1="275.0" y1="195.0" x2="295.8" y2="178.5" stroke="#738078" stroke-width="6.6" stroke-linecap="round"/>
<line x1="213.0" y1="193.7" x2="245.5" y2="196.2" stroke="#793732" stroke-width="11.6" stroke-linecap="round"/><line x1="213.0" y1="193.7" x2="245.5" y2="196.2" stroke="#df7067" stroke-width="9.2" stroke-linecap="round"/>
<line x1="213.0" y1="193.7" x2="201.6" y2="206.4" stroke="#793631" stroke-width="11.6" stroke-linecap="round"/><line x1="213.0" y1="193.7" x2="201.6" y2="206.4" stroke="#df6f66" stroke-width="9.2" stroke-linecap="round"/>
<line x1="245.5" y1="196.2" x2="278.0" y2="198.8" stroke="#383f3b" stroke-width="11.6" stroke-linecap="round"/><line x1="245.5" y1="196.2" x2="278.0" y2="198.8" stroke="#717e77" stroke-width="9.2" stroke-linecap="round"/>
<line x1="183.3" y1="133.0" x2="205.3" y2="178.0" stroke="#c98a06" stroke-width="3.6" stroke-dasharray="7.8 6.8" stroke-linecap="round"/>
<circle cx="213.0" cy="193.7" r="19.4" fill="url(#gO)" stroke="#61201b" stroke-width="0.58" opacity="0.86"/>
<line x1="394.8" y1="190.8" x2="407.1" y2="209.2" stroke="#363e39" stroke-width="9.1" stroke-linecap="round"/><line x1="394.8" y1="190.8" x2="407.1" y2="209.2" stroke="#6f7c74" stroke-width="6.6" stroke-linecap="round"/>
<line x1="402.9" y1="185.4" x2="415.2" y2="203.9" stroke="#363e39" stroke-width="9.1" stroke-linecap="round"/><line x1="402.9" y1="185.4" x2="415.2" y2="203.9" stroke="#6f7c74" stroke-width="6.6" stroke-linecap="round"/>
<line x1="290.0" y1="217.2" x2="278.0" y2="198.8" stroke="#353d39" stroke-width="11.6" stroke-linecap="round"/><line x1="290.0" y1="217.2" x2="278.0" y2="198.8" stroke="#6e7b73" stroke-width="9.2" stroke-linecap="round"/>
<line x1="201.6" y1="206.4" x2="190.2" y2="219.0" stroke="#858583" stroke-width="11.6" stroke-linecap="round"/><line x1="201.6" y1="206.4" x2="190.2" y2="219.0" stroke="#e4e4de" stroke-width="9.2" stroke-linecap="round"/>
<circle cx="278.0" cy="198.8" r="19.4" fill="url(#gC)" stroke="#222925" stroke-width="0.58" opacity="0.88"/>
<line x1="411.2" y1="206.5" x2="437.2" y2="208.1" stroke="#343c38" stroke-width="11.6" stroke-linecap="round"/><line x1="411.2" y1="206.5" x2="437.2" y2="208.1" stroke="#6c7971" stroke-width="9.2" stroke-linecap="round"/>
<line x1="437.2" y1="208.1" x2="463.3" y2="209.6" stroke="#858583" stroke-width="11.6" stroke-linecap="round"/><line x1="437.2" y1="208.1" x2="463.3" y2="209.6" stroke="#e4e4de" stroke-width="9.2" stroke-linecap="round"/>
<line x1="72.8" y1="158.8" x2="82.6" y2="148.0" stroke="#858583" stroke-width="11.6" stroke-linecap="round"/><line x1="72.8" y1="158.8" x2="82.6" y2="148.0" stroke="#e4e4de" stroke-width="9.2" stroke-linecap="round"/>
<line x1="411.2" y1="206.5" x2="390.1" y2="223.1" stroke="#333b36" stroke-width="11.6" stroke-linecap="round"/><line x1="411.2" y1="206.5" x2="390.1" y2="223.1" stroke="#6a776f" stroke-width="9.2" stroke-linecap="round"/>
<line x1="152.9" y1="71.3" x2="145.5" y2="56.7" stroke="#858583" stroke-width="11.6" stroke-linecap="round"/><line x1="152.9" y1="71.3" x2="145.5" y2="56.7" stroke="#e4e4de" stroke-width="9.2" stroke-linecap="round"/>
<circle cx="82.6" cy="148.0" r="13.1" fill="url(#gH)" stroke="#6d6d6b" stroke-width="0.58" opacity="0.90"/>
<circle cx="411.2" cy="206.5" r="19.4" fill="url(#gC)" stroke="#222925" stroke-width="0.58" opacity="0.90"/>
<line x1="182.4" y1="227.8" x2="158.6" y2="254.4" stroke="#c98a06" stroke-width="3.6" stroke-dasharray="7.8 6.8" stroke-linecap="round"/>
<circle cx="190.2" cy="219.0" r="13.1" fill="url(#gH)" stroke="#6d6d6b" stroke-width="0.58" opacity="0.90"/>
<line x1="302.1" y1="235.7" x2="290.0" y2="217.2" stroke="#323a35" stroke-width="11.6" stroke-linecap="round"/><line x1="302.1" y1="235.7" x2="290.0" y2="217.2" stroke="#68756e" stroke-width="9.2" stroke-linecap="round"/>
<line x1="169.2" y1="104.2" x2="178.2" y2="122.4" stroke="#858583" stroke-width="11.6" stroke-linecap="round"/><line x1="169.2" y1="104.2" x2="178.2" y2="122.4" stroke="#e4e4de" stroke-width="9.2" stroke-linecap="round"/>
<circle cx="145.5" cy="56.7" r="13.1" fill="url(#gH)" stroke="#6d6d6b" stroke-width="0.58" opacity="0.91"/>
<circle cx="463.3" cy="209.6" r="13.1" fill="url(#gH)" stroke="#6d6d6b" stroke-width="0.58" opacity="0.91"/>
<line x1="63.0" y1="169.5" x2="72.8" y2="158.8" stroke="#782f2a" stroke-width="11.6" stroke-linecap="round"/><line x1="63.0" y1="169.5" x2="72.8" y2="158.8" stroke="#dd635a" stroke-width="9.2" stroke-linecap="round"/>
<line x1="160.3" y1="85.9" x2="152.9" y2="71.3" stroke="#782e29" stroke-width="11.6" stroke-linecap="round"/><line x1="160.3" y1="85.9" x2="152.9" y2="71.3" stroke="#dd6259" stroke-width="9.2" stroke-linecap="round"/>
<line x1="390.1" y1="223.1" x2="369.0" y2="239.6" stroke="#303934" stroke-width="11.6" stroke-linecap="round"/><line x1="390.1" y1="223.1" x2="369.0" y2="239.6" stroke="#65736b" stroke-width="9.2" stroke-linecap="round"/>
<circle cx="178.2" cy="122.4" r="13.1" fill="url(#gH)" stroke="#6d6d6b" stroke-width="0.58" opacity="0.92"/>
<line x1="160.3" y1="85.9" x2="169.2" y2="104.2" stroke="#782e29" stroke-width="11.6" stroke-linecap="round"/><line x1="160.3" y1="85.9" x2="169.2" y2="104.2" stroke="#dd6258" stroke-width="9.2" stroke-linecap="round"/>
<line x1="335.8" y1="232.8" x2="302.4" y2="230.9" stroke="#303833" stroke-width="9.1" stroke-linecap="round"/><line x1="335.8" y1="232.8" x2="302.4" y2="230.9" stroke="#64726a" stroke-width="6.6" stroke-linecap="round"/>
<line x1="335.3" y1="242.5" x2="301.8" y2="240.6" stroke="#303833" stroke-width="9.1" stroke-linecap="round"/><line x1="335.3" y1="242.5" x2="301.8" y2="240.6" stroke="#64726a" stroke-width="6.6" stroke-linecap="round"/>
<line x1="137.7" y1="254.5" x2="128.5" y2="241.6" stroke="#858583" stroke-width="11.6" stroke-linecap="round"/><line x1="137.7" y1="254.5" x2="128.5" y2="241.6" stroke="#e4e4de" stroke-width="9.2" stroke-linecap="round"/>
<line x1="63.0" y1="169.5" x2="78.0" y2="187.0" stroke="#772d28" stroke-width="11.6" stroke-linecap="round"/><line x1="63.0" y1="169.5" x2="78.0" y2="187.0" stroke="#dc6058" stroke-width="9.2" stroke-linecap="round"/>
<line x1="369.3" y1="234.7" x2="335.8" y2="232.8" stroke="#2f3833" stroke-width="9.1" stroke-linecap="round"/><line x1="369.3" y1="234.7" x2="335.8" y2="232.8" stroke="#647169" stroke-width="6.6" stroke-linecap="round"/>
<line x1="368.7" y1="244.4" x2="335.3" y2="242.5" stroke="#2f3833" stroke-width="9.1" stroke-linecap="round"/><line x1="368.7" y1="244.4" x2="335.3" y2="242.5" stroke="#647169" stroke-width="6.6" stroke-linecap="round"/>
<line x1="302.1" y1="235.7" x2="286.0" y2="248.7" stroke="#2f3833" stroke-width="11.6" stroke-linecap="round"/><line x1="302.1" y1="235.7" x2="286.0" y2="248.7" stroke="#637169" stroke-width="9.2" stroke-linecap="round"/>
<line x1="78.0" y1="187.0" x2="92.9" y2="204.4" stroke="#858583" stroke-width="11.6" stroke-linecap="round"/><line x1="78.0" y1="187.0" x2="92.9" y2="204.4" stroke="#e4e4de" stroke-width="9.2" stroke-linecap="round"/>
<circle cx="128.5" cy="241.6" r="13.1" fill="url(#gH)" stroke="#6d6d6b" stroke-width="0.58" opacity="0.94"/>
<circle cx="302.1" cy="235.7" r="19.4" fill="url(#gC)" stroke="#222925" stroke-width="0.58" opacity="0.94"/>
<line x1="369.0" y1="239.6" x2="378.7" y2="253.9" stroke="#2d3631" stroke-width="11.6" stroke-linecap="round"/><line x1="369.0" y1="239.6" x2="378.7" y2="253.9" stroke="#606f66" stroke-width="9.2" stroke-linecap="round"/>
<circle cx="63.0" cy="169.5" r="19.4" fill="url(#gO)" stroke="#61201b" stroke-width="0.58" opacity="0.95"/>
<line x1="146.9" y1="267.4" x2="137.7" y2="254.5" stroke="#772b25" stroke-width="11.6" stroke-linecap="round"/><line x1="146.9" y1="267.4" x2="137.7" y2="254.5" stroke="#dc5c53" stroke-width="9.2" stroke-linecap="round"/>
<circle cx="160.3" cy="85.9" r="19.4" fill="url(#gO)" stroke="#61201b" stroke-width="0.58" opacity="0.95"/>
<line x1="286.0" y1="248.7" x2="269.9" y2="261.6" stroke="#858583" stroke-width="11.6" stroke-linecap="round"/><line x1="286.0" y1="248.7" x2="269.9" y2="261.6" stroke="#e4e4de" stroke-width="9.2" stroke-linecap="round"/>
<circle cx="369.0" cy="239.6" r="19.4" fill="url(#gC)" stroke="#222925" stroke-width="0.58" opacity="0.95"/>
<line x1="170.1" y1="264.7" x2="193.3" y2="262.1" stroke="#858583" stroke-width="11.6" stroke-linecap="round"/><line x1="170.1" y1="264.7" x2="193.3" y2="262.1" stroke="#e4e4de" stroke-width="9.2" stroke-linecap="round"/>
<line x1="100.6" y1="213.4" x2="135.5" y2="254.1" stroke="#c98a06" stroke-width="3.6" stroke-dasharray="7.8 6.8" stroke-linecap="round"/>
<line x1="146.9" y1="267.4" x2="170.1" y2="264.7" stroke="#772a24" stroke-width="11.6" stroke-linecap="round"/><line x1="146.9" y1="267.4" x2="170.1" y2="264.7" stroke="#dc5a51" stroke-width="9.2" stroke-linecap="round"/>
<circle cx="92.9" cy="204.4" r="13.1" fill="url(#gH)" stroke="#6d6d6b" stroke-width="0.58" opacity="0.96"/>
<line x1="378.7" y1="253.9" x2="388.4" y2="268.3" stroke="#858583" stroke-width="11.6" stroke-linecap="round"/><line x1="378.7" y1="253.9" x2="388.4" y2="268.3" stroke="#e4e4de" stroke-width="9.2" stroke-linecap="round"/>
<circle cx="193.3" cy="262.1" r="13.1" fill="url(#gH)" stroke="#6d6d6b" stroke-width="0.58" opacity="0.97"/>
<circle cx="146.9" cy="267.4" r="19.4" fill="url(#gO)" stroke="#61201b" stroke-width="0.58" opacity="0.98"/>
<circle cx="269.9" cy="261.6" r="13.1" fill="url(#gH)" stroke="#6d6d6b" stroke-width="0.58" opacity="0.98"/>
<circle cx="388.4" cy="268.3" r="13.1" fill="url(#gH)" stroke="#6d6d6b" stroke-width="0.58" opacity="1.00"/></svg>