<svg xmlns="http://www.w3.org/2000/svg" viewBox="0 0 520 421" role="img" aria-label="2,2,2-Trifluoroethanol, ball-and-stick model"><title>2,2,2-Trifluoroethanol, ball-and-stick model</title><defs><radialGradient id="gC" cx="0.36" cy="0.32" r="0.72"><stop offset="0" stop-color="#c9cecb"/><stop offset="0.45" stop-color="#4b5b52"/><stop offset="1" stop-color="#29322d"/></radialGradient><radialGradient id="gF" cx="0.36" cy="0.32" r="0.72"><stop offset="0" stop-color="#dfecc5"/><stop offset="0.45" stop-color="#95be3f"/><stop offset="1" stop-color="#526923"/></radialGradient><radialGradient id="gH" cx="0.36" cy="0.32" r="0.72"><stop offset="0" stop-color="#fbfbfa"/><stop offset="0.45" stop-color="#f2f2ee"/><stop offset="1" stop-color="#858583"/></radialGradient><radialGradient id="gO" cx="0.36" cy="0.32" r="0.72"><stop offset="0" stop-color="#f3c8c5"/><stop offset="0.45" stop-color="#d8473d"/><stop offset="1" stop-color="#772722"/></radialGradient></defs><line x1="124.5" y1="252.3" x2="135.6" y2="275.9" stroke="#858582" stroke-width="21.0" stroke-linecap="round"/><line x1="124.5" y1="252.3" x2="135.6" y2="275.9" stroke="#e4e4de" stroke-width="16.6" stroke-linecap="round"/>
<circle cx="135.6" cy="275.9" r="23.6" fill="url(#gH)" stroke="#6d6d6b" stroke-width="1.05" opacity="0.78"/>
<line x1="226.2" y1="132.1" x2="241.0" y2="102.2" stroke="#858583" stroke-width="21.0" stroke-linecap="round"/><line x1="226.2" y1="132.1" x2="241.0" y2="102.2" stroke="#e4e4de" stroke-width="16.6" stroke-linecap="round"/>
<line x1="113.5" y1="228.7" x2="124.5" y2="252.3" stroke="#7a3b36" stroke-width="21.0" stroke-linecap="round"/><line x1="113.5" y1="228.7" x2="124.5" y2="252.3" stroke="#e0786f" stroke-width="16.6" stroke-linecap="round"/>
<circle cx="241.0" cy="102.2" r="23.6" fill="url(#gH)" stroke="#6d6d6b" stroke-width="1.05" opacity="0.81"/>
<line x1="328.7" y1="274.4" x2="342.7" y2="310.2" stroke="#5c6e36" stroke-width="21.0" stroke-linecap="round"/><line x1="328.7" y1="274.4" x2="342.7" y2="310.2" stroke="#aecc6f" stroke-width="16.6" stroke-linecap="round"/>
<circle cx="342.7" cy="310.2" r="32.3" fill="url(#gF)" stroke="#43551c" stroke-width="1.05" opacity="0.82"/>
<line x1="113.5" y1="228.7" x2="162.4" y2="195.3" stroke="#793934" stroke-width="21.0" stroke-linecap="round"/><line x1="113.5" y1="228.7" x2="162.4" y2="195.3" stroke="#df736b" stroke-width="16.6" stroke-linecap="round"/>
<line x1="211.3" y1="162.0" x2="226.2" y2="132.1" stroke="#39413c" stroke-width="21.0" stroke-linecap="round"/><line x1="211.3" y1="162.0" x2="226.2" y2="132.1" stroke="#748179" stroke-width="16.6" stroke-linecap="round"/>
<line x1="162.4" y1="195.3" x2="211.3" y2="162.0" stroke="#38403b" stroke-width="21.0" stroke-linecap="round"/><line x1="162.4" y1="195.3" x2="211.3" y2="162.0" stroke="#727f78" stroke-width="16.6" stroke-linecap="round"/>
<circle cx="113.5" cy="228.7" r="34.9" fill="url(#gO)" stroke="#61201b" stroke-width="1.05" opacity="0.85"/>
<line x1="211.3" y1="162.0" x2="263.0" y2="200.3" stroke="#363e3a" stroke-width="21.0" stroke-linecap="round"/><line x1="211.3" y1="162.0" x2="263.0" y2="200.3" stroke="#6f7c75" stroke-width="16.6" stroke-linecap="round"/>
<line x1="314.6" y1="238.6" x2="328.7" y2="274.4" stroke="#363e39" stroke-width="21.0" stroke-linecap="round"/><line x1="314.6" y1="238.6" x2="328.7" y2="274.4" stroke="#6f7c74" stroke-width="16.6" stroke-linecap="round"/>
<line x1="211.3" y1="162.0" x2="198.9" y2="136.0" stroke="#353d38" stroke-width="21.0" stroke-linecap="round"/><line x1="211.3" y1="162.0" x2="198.9" y2="136.0" stroke="#6e7b72" stroke-width="16.6" stroke-linecap="round"/>
<line x1="263.0" y1="200.3" x2="314.6" y2="238.6" stroke="#343d38" stroke-width="21.0" stroke-linecap="round"/><line x1="263.0" y1="200.3" x2="314.6" y2="238.6" stroke="#6c7a71" stroke-width="16.6" stroke-linecap="round"/>
<circle cx="211.3" cy="162.0" r="34.9" fill="url(#gC)" stroke="#222925" stroke-width="1.05" opacity="0.88"/>
<line x1="314.6" y1="238.6" x2="361.9" y2="205.6" stroke="#333b36" stroke-width="21.0" stroke-linecap="round"/><line x1="314.6" y1="238.6" x2="361.9" y2="205.6" stroke="#6a776f" stroke-width="16.6" stroke-linecap="round"/>
<line x1="361.9" y1="205.6" x2="409.1" y2="172.6" stroke="#566b2b" stroke-width="21.0" stroke-linecap="round"/><line x1="361.9" y1="205.6" x2="409.1" y2="172.6" stroke="#a5c85d" stroke-width="16.6" stroke-linecap="round"/>
<line x1="314.6" y1="238.6" x2="303.5" y2="272.5" stroke="#313934" stroke-width="21.0" stroke-linecap="round"/><line x1="314.6" y1="238.6" x2="303.5" y2="272.5" stroke="#66746c" stroke-width="16.6" stroke-linecap="round"/>
<line x1="198.9" y1="136.0" x2="186.4" y2="110.1" stroke="#858583" stroke-width="21.0" stroke-linecap="round"/><line x1="198.9" y1="136.0" x2="186.4" y2="110.1" stroke="#e4e4de" stroke-width="16.6" stroke-linecap="round"/>
<circle cx="314.6" cy="238.6" r="34.9" fill="url(#gC)" stroke="#222925" stroke-width="1.05" opacity="0.91"/>
<circle cx="409.1" cy="172.6" r="32.3" fill="url(#gF)" stroke="#43551c" stroke-width="1.05" opacity="0.93"/>
<line x1="303.5" y1="272.5" x2="292.4" y2="306.4" stroke="#546925" stroke-width="21.0" stroke-linecap="round"/><line x1="303.5" y1="272.5" x2="292.4" y2="306.4" stroke="#a0c453" stroke-width="16.6" stroke-linecap="round"/>
<circle cx="186.4" cy="110.1" r="23.6" fill="url(#gH)" stroke="#6d6d6b" stroke-width="1.05" opacity="0.95"/>
<circle cx="292.4" cy="306.4" r="32.3" fill="url(#gF)" stroke="#43551c" stroke-width="1.05" opacity="1.00"/></svg>